<?xml version="1.0" encoding="iso-8859-1"?>
<!-- Generator: Adobe Illustrator 20.1.0, SVG Export Plug-In . SVG Version: 6.00 Build 0)  -->
<svg xmlns="http://www.w3.org/2000/svg" xmlns:xlink="http://www.w3.org/1999/xlink" version="1.1" id="&#1057;&#1083;&#1086;&#1081;_1" x="0px" y="0px" viewBox="0 0 64 64" style="enable-background:new 0 0 64 64;" xml:space="preserve">
<linearGradient id="SVGID_1__49454" gradientUnits="userSpaceOnUse" x1="32" y1="12.3356" x2="32" y2="21.6689" spreadMethod="reflect">
	<stop offset="0" style="stop-color:#6DC7FF"/>
	<stop offset="1" style="stop-color:#E6ABFF"/>
</linearGradient>
<circle style="fill:url(#SVGID_1__49454);" cx="32" cy="17.002" r="4"/>
<linearGradient id="SVGID_2__49454" gradientUnits="userSpaceOnUse" x1="32" y1="5.8356" x2="32" y2="59.3042" spreadMethod="reflect">
	<stop offset="0" style="stop-color:#1A6DFF"/>
	<stop offset="1" style="stop-color:#C822FF"/>
</linearGradient>
<path style="fill:url(#SVGID_2__49454);" d="M56,26c1.103,0,2-0.891,2-1.989v-0.483c0-0.641-0.313-1.246-0.857-1.634L34.806,6.858  c-1.705-1.147-3.906-1.147-5.611,0L6.836,21.909C6.312,22.282,6,22.887,6,23.528v0.483C6,25.109,6.897,26,8,26h3v22.002  c-1.654,0-3,1.346-3,3v1.184c-1.161,0.415-2,1.514-2,2.816V58h52v-2.998c0-1.302-0.839-2.401-2-2.816v-1.184c0-1.654-1.346-3-3-3V26  H56z M8,24l-0.025-0.452L30.312,8.514C30.824,8.168,31.412,7.997,32,7.997s1.176,0.173,1.688,0.519L56,23.526L56.003,24  c0,0-0.001,0-0.003,0h-3l0,0H43l0,0h-6l0,0H27v0.008l-6,0.001V24H11l0,0H8z M49,34v-4h2v14h-2v-5h-2v5h-2V30h2v4H49z M43,48h-6V26h6  V48z M15,39v5h-2V30h2v4h2v-4h2v14h-2v-5H15z M21,26h6v22h-6V26z M35,26v2h-6v-2H35z M35,44h-2v-5h-2v5h-2V30h2v4h2v-4h2V44z M29,46  h6v2h-6V46z M19,26v2h-6v-2H19z M13,46h6v2h-6V46z M56,56H8v-0.998C8,54.45,8.448,54,9,54h46c0.552,0,1,0.45,1,1.002V56z M54,51.002  V52H10v-0.998C10,50.45,10.448,50,11,50h10h6h10h6h10C53.552,50,54,50.45,54,51.002z M45,48v-2h6v2H45z M51,28h-6v-2h6V28z"/>
<linearGradient id="SVGID_3__49454" gradientUnits="userSpaceOnUse" x1="32" y1="5.8356" x2="32" y2="59.3065" spreadMethod="reflect">
	<stop offset="0" style="stop-color:#1A6DFF"/>
	<stop offset="1" style="stop-color:#C822FF"/>
</linearGradient>
<path style="fill:url(#SVGID_3__49454);" d="M32,22.002c2.757,0,5-2.243,5-5s-2.243-5-5-5s-5,2.243-5,5S29.243,22.002,32,22.002z   M32,14.002c1.654,0,3,1.346,3,3s-1.346,3-3,3s-3-1.346-3-3S30.346,14.002,32,14.002z"/>
</svg>
