<?xml version="1.0" encoding="utf-8"?>
<!-- Svg Vector Icons : http://www.onlinewebfonts.com/icon -->
<!DOCTYPE svg PUBLIC "-//W3C//DTD SVG 1.1//EN" "http://www.w3.org/Graphics/SVG/1.1/DTD/svg11.dtd">
<svg version="1.1" xmlns="http://www.w3.org/2000/svg" xmlns:xlink="http://www.w3.org/1999/xlink" x="0px" y="0px" viewBox="0 0 1000 1000" enable-background="new 0 0 1000 1000" xml:space="preserve">
<metadata> Svg Vector Icons : http://www.onlinewebfonts.com/icon </metadata>
<g><g transform="translate(0.000000,511.000000) scale(0.100000,-0.100000)"><path d="M1932.5,3508.7c-44.7-15.6-110.9-44.7-147.8-68.1c-99.2-62.2-262.6-243.1-311.2-346.2l-42.8-93.4V917.9v-2081.2l66.1-130.3l66.1-130.3l-38.9-44.7c-120.6-134.2-1346-1550.2-1382.9-1596.9c-54.5-70-54.5-128.4-1.9-194.5l38.9-50.6h4814h4814l46.7,48.6c54.5,52.5,62.2,118.6,21.4,175c-13.6,21.4-357.9,406.5-764.4,853.9l-739.1,815l70,136.2l70,136.2V917.9v2063.7l-54.5,110.9c-79.8,163.4-208.1,295.6-359.8,369.6l-130.3,64.2l-2975.9,3.9C2582.1,3532.1,1998.6,3528.2,1932.5,3508.7z M7940.7,3224.8c95.3-27.2,180.9-101.1,235.4-202.3l42.8-79.7V949.1c0-1097-7.8-2026.7-15.6-2067.6c-17.5-83.7-142-217.9-241.2-258.7c-52.5-23.3-569.9-27.2-2991.5-27.2c-2604.4,0-2937,3.9-3001.2,31.1c-95.3,38.9-175.1,116.7-219.8,212c-35,73.9-36.9,173.1-36.9,2083.1v2003.4l50.6,101.1c48.6,99.2,128.4,165.3,237.3,198.4C2080.3,3250,7853.2,3248.1,7940.7,3224.8z M1903.3-1657.3c99.2-38.9,149.8-38.9,3067.3-38.9c2933.1,0,2966.2,0,3065.4,38.9c77.8,31.1,105,35,126.4,17.5c42.8-35,1223.4-1340.1,1229.3-1361.5c3.9-9.7-1709.7-17.5-4401.6-17.5c-3520.5,0-4405.5,5.8-4393.9,25.3c7.8,11.7,130.3,155.6,270.4,315.1c682.7,781.9,925.8,1060,929.7,1060C1798.3-1618.4,1846.9-1635.9,1903.3-1657.3z"/><path d="M4990.1,2756c-21.4-11.7-229.5-212-461-443.5l-424-420.1v293.7c0,258.7-3.9,301.5-37,340.4c-25.3,33.1-56.4,44.7-108.9,44.7s-83.6-11.7-108.9-44.7c-33-40.8-36.9-83.6-36.9-480.4v-433.7l-369.6-365.7c-305.4-301.5-369.6-375.4-369.6-420.1c0-75.9,79.7-149.8,157.5-149.8c54.5,0,97.3,35,322.9,256.7l258.7,256.7V174.9V-842.3L3862-889l46.7-48.6h1149.5h1149.5l46.7,48.6l48.6,46.7V15.4v857.8l-48.6,46.7c-58.3,58.3-124.5,62.2-192.6,7.8l-50.6-38.9l-3.9-762.5l-5.8-762.5h-943.3h-943.4L4109,420l-3.9,1056.2l468.8,461c258.7,252.9,474.6,461,482.4,461c5.8,0,383.2-381.2,838.3-846.1c453.2-464.9,834.4-851.9,846.1-859.7c9.7-7.8,46.7-15.6,81.7-15.6c72,0,142,73.9,142,151.7c0,50.6-33.1,87.5-719.7,791.6c-198.4,204.2-523.2,536.8-719.7,739.1c-198.4,204.2-377.4,379.3-398.7,392.9C5077.6,2781.3,5040.7,2783.2,4990.1,2756z"/><path d="M4396.9,1143.6c-44.7-44.7-42.8-9.7-42.8-739.1l1.9-554.3l50.6-42.8c50.6-44.7,56.4-44.7,653.5-44.7c632.1,0,694.4,7.8,725.5,87.5c5.8,17.5,11.7,301.5,11.7,630.2c0,577.7-2,601-40.9,651.6l-38.9,50.6h-641.9C4461.1,1182.5,4433.8,1180.5,4396.9,1143.6z M5501.6,478.3l3.9-404.6h-427.9h-427.9v408.5v408.5l424-3.9l422.1-5.8L5501.6,478.3z"/></g></g>
</svg>