<?xml version="1.0" encoding="utf-8"?>
<!-- Svg Vector Icons : http://www.onlinewebfonts.com/icon -->
<!DOCTYPE svg PUBLIC "-//W3C//DTD SVG 1.1//EN" "http://www.w3.org/Graphics/SVG/1.1/DTD/svg11.dtd">
<svg version="1.1" xmlns="http://www.w3.org/2000/svg" xmlns:xlink="http://www.w3.org/1999/xlink" x="0px" y="0px" viewBox="0 0 1000 1000" enable-background="new 0 0 1000 1000" xml:space="preserve">
<metadata> Svg Vector Icons : http://www.onlinewebfonts.com/icon </metadata>
<g><path d="M990,359.3c0-1.9,0-3.9,0-6.3c-2.5,0-4.4,0-6.3,0c-38.2,0-76.4,0-114.6-0.1c-33.7-0.1-67.1-3.6-99.4-14.2c-59.8-19.6-96-60.9-112-121.1c-8.1-30.8-10.5-62.3-10.7-94C647,85.7,647,47.9,647,10c-165.9,0-331.9,0-497.8,0c-10.5,2-21.3,3.1-31.6,6C61,31.8,18.5,81.7,11.1,140c-0.4,2.8-0.8,5.4-1.1,8.1c0,234.5,0,469.1,0,703.5c1.6,9,2.6,18.1,4.8,26.8c16.4,65.1,75.5,111.3,142.6,111.3c228.4,0.1,456.9,0.1,685.3,0c72.8,0,135-53.9,145.8-126c1.3-8,1.4-16.3,1.4-24.4C990,679.3,990,519.3,990,359.3z M206,373.6c0.6-14.3,0.1-28.7,0.1-43.1c0-16.3,10.3-26.6,26.6-26.6c113,0,225.9,0,338.9,0c16.2,0,26.3,10,26.3,26.2c0,15.2,0,30.3,0,45.5c0,16.3-9.9,26.2-26.2,26.2c-56.7,0-113.3,0-169.9,0c-55.8,0-111.7-0.4-167.5,0.3C216,402.3,205.2,389.8,206,373.6z M206,545c0.6-14.3,0.1-28.7,0.1-43.1c0-16,10.3-26.5,26.3-26.5c178.4,0,356.8,0,535.4,0c16.2,0,26.2,10.2,26.2,26.3c0,14.8,0,29.7,0,44.5c0,17.4-9.7,27.1-26.8,27.1c-89,0-177.9,0-266.9,0c-88.6,0-177.3-0.3-265.9,0.3C216.9,573.7,205.2,562,206,545z M794,718.9c0,16-10,26-26,26c-89.3,0-178.7,0-267.9,0c-88.8,0-177.7-0.3-266.4,0.3c-16.4,0.1-28.2-11.3-27.7-27.7c0.5-14.2,0.1-28.5,0.1-42.6c0-17.9,9.9-27.8,27.8-27.8c168.6,0,337.3,0,505.9,0c9.3,0,18.6-0.1,28,0c16.2,0.1,26.1,10.3,26.2,26.5C794,688.6,794,703.8,794,718.9z M737.9,200.7c27.1,47.9,67.7,75.7,123,78.4c41.9,2,83.9,0.5,125.9,0.5c0.1,0,0.1,0,0.3,0c-89-89-177.9-178-266.4-266.6c0,39.2-0.1,79.7,0,120.1C720.7,157.1,726.2,179.8,737.9,200.7z M988.6,279.3c-0.5,0-1.1,0.1-1.6,0.1c0.1,0.1,0.4,0.4,0.5,0.5C987.9,279.8,988.2,279.6,988.6,279.3z"/></g>
</svg>